<svg width="32" height="32" viewBox="0 0 32 32" fill="none" xmlns="http://www.w3.org/2000/svg">
<g id="instagram 1" clip-path="url(#clip0_1_368)">
<path id="Vector" d="M16.3149 32C16.209 32 16.103 32 15.9963 31.9995C13.488 32.0056 11.1704 31.9419 8.9165 31.8047C6.8501 31.679 4.96387 30.9649 3.46143 29.7398C2.01172 28.5576 1.02173 26.9593 0.519043 24.9895C0.081543 23.2747 0.0583496 21.5913 0.0361328 19.9632C0.0200195 18.795 0.00341797 17.4107 0 16.003C0.00341797 14.5894 0.0200195 13.2051 0.0361328 12.0369C0.0583496 10.409 0.081543 8.72562 0.519043 7.01053C1.02173 5.0408 2.01172 3.44241 3.46143 2.26029C4.96387 1.03519 6.8501 0.321077 8.91675 0.195345C11.1707 0.0583819 13.4888 -0.00558294 16.0024 0.000520578C18.5115 -0.00485052 20.8284 0.0583819 23.0823 0.195345C25.1487 0.321077 27.0349 1.03519 28.5373 2.26029C29.9873 3.44241 30.977 5.0408 31.4797 7.01053C31.9172 8.72537 31.9404 10.409 31.9626 12.0369C31.9788 13.2051 31.9956 14.5894 31.9988 15.9971V16.003C31.9956 17.4107 31.9788 18.795 31.9626 19.9632C31.9404 21.5911 31.9175 23.2744 31.4797 24.9895C30.977 26.9593 29.9873 28.5576 28.5373 29.7398C27.0349 30.9649 25.1487 31.679 23.0823 31.8047C20.9238 31.9361 18.7065 32 16.3149 32ZM15.9963 29.4995C18.4639 29.5054 20.7295 29.4431 22.9304 29.3094C24.4929 29.2144 25.8477 28.7073 26.9575 27.8023C27.9834 26.9656 28.6899 25.8113 29.0574 24.3714C29.4216 22.9439 29.4426 21.4112 29.4629 19.929C29.4788 18.7686 29.4954 17.3941 29.4988 16C29.4954 14.6057 29.4788 13.2315 29.4629 12.0711C29.4426 10.5889 29.4216 9.05618 29.0574 7.62845C28.6899 6.18851 27.9834 5.03421 26.9575 4.19754C25.8477 3.29276 24.4929 2.78568 22.9304 2.69071C20.7295 2.55667 18.4639 2.4949 16.0022 2.50028C13.5352 2.49442 11.2693 2.55667 9.06836 2.69071C7.50586 2.78568 6.15112 3.29276 5.04126 4.19754C4.01538 5.03421 3.30884 6.18851 2.94141 7.62845C2.57715 9.05618 2.55615 10.5887 2.53589 12.0711C2.52002 13.2325 2.50342 14.6077 2.5 16.003C2.50342 17.3921 2.52002 18.7676 2.53589 19.929C2.55615 21.4112 2.57715 22.9439 2.94141 24.3714C3.30884 25.8113 4.01538 26.9656 5.04126 27.8023C6.15112 28.7071 7.50586 29.2141 9.06836 29.3091C11.2693 29.4431 13.5356 29.5056 15.9963 29.4995ZM15.9368 23.8125C11.6291 23.8125 8.12427 20.3079 8.12427 16C8.12427 11.6922 11.6291 8.18753 15.9368 8.18753C20.2446 8.18753 23.7493 11.6922 23.7493 16C23.7493 20.3079 20.2446 23.8125 15.9368 23.8125ZM15.9368 10.6875C13.0076 10.6875 10.6243 13.0708 10.6243 16C10.6243 18.9292 13.0076 21.3125 15.9368 21.3125C18.8662 21.3125 21.2493 18.9292 21.2493 16C21.2493 13.0708 18.8662 10.6875 15.9368 10.6875ZM24.6243 5.68753C23.5889 5.68753 22.7493 6.52689 22.7493 7.56253C22.7493 8.59818 23.5889 9.43753 24.6243 9.43753C25.6599 9.43753 26.4993 8.59818 26.4993 7.56253C26.4993 6.52689 25.6599 5.68753 24.6243 5.68753Z" fill="white"/>
</g>
<defs>
<clipPath id="clip0_1_368">
<rect width="32" height="32" fill="white"/>
</clipPath>
</defs>
</svg>
