<svg width="252" height="46" viewBox="0 0 252 46" fill="none" xmlns="http://www.w3.org/2000/svg">
<g clip-path="url(#clip0_1_49)">
<path d="M48.2455 38.1899V12.0081H57.0921C59.146 12.0081 60.825 12.3789 62.129 13.1203C63.4415 13.8533 64.4131 14.8462 65.0438 16.099C65.6744 17.3519 65.9898 18.7496 65.9898 20.2922C65.9898 21.8348 65.6744 23.2368 65.0438 24.4982C64.4216 25.7595 63.4585 26.7652 62.1546 27.5152C60.8506 28.2567 59.1801 28.6274 57.1432 28.6274H50.8023V25.8149H57.0409C58.4472 25.8149 59.5764 25.572 60.4287 25.0862C61.281 24.6005 61.8989 23.9442 62.2824 23.1175C62.6744 22.2823 62.8705 21.3405 62.8705 20.2922C62.8705 19.2439 62.6744 18.3064 62.2824 17.4797C61.8989 16.653 61.2767 16.0053 60.4159 15.5365C59.5551 15.0593 58.4131 14.8206 56.9898 14.8206H51.4159V38.1899H48.2455ZM70.6879 38.1899V18.5536H73.6027V21.5195H73.8073C74.1652 20.5479 74.8129 19.7595 75.7504 19.1544C76.6879 18.5493 77.7448 18.2468 78.9209 18.2468C79.1425 18.2468 79.4195 18.251 79.7519 18.2595C80.0842 18.2681 80.3357 18.2809 80.5061 18.2979V21.3661C80.4038 21.3405 80.1695 21.3022 79.803 21.251C79.445 21.1914 79.0658 21.1615 78.6652 21.1615C77.7107 21.1615 76.8584 21.3618 76.1084 21.7624C75.3669 22.1544 74.7788 22.6999 74.3442 23.3987C73.9181 24.0891 73.705 24.8774 73.705 25.7638V38.1899H70.6879ZM100.817 38.1899V18.5536H103.732V21.6218H103.987C104.396 20.5735 105.057 19.7595 105.969 19.18C106.881 18.5919 107.976 18.2979 109.254 18.2979C110.55 18.2979 111.628 18.5919 112.489 19.18C113.358 19.7595 114.036 20.5735 114.521 21.6218H114.726C115.229 20.6076 115.983 19.8022 116.989 19.2056C117.994 18.6005 119.2 18.2979 120.607 18.2979C122.362 18.2979 123.798 18.8476 124.915 19.947C126.031 21.038 126.59 22.7382 126.59 25.0479V38.1899H123.573V25.0479C123.573 23.599 123.176 22.5635 122.384 21.9414C121.591 21.3192 120.658 21.0081 119.584 21.0081C118.203 21.0081 117.134 21.4257 116.375 22.261C115.617 23.0877 115.237 24.136 115.237 25.4058V38.1899H112.169V24.7411C112.169 23.6246 111.807 22.7255 111.082 22.0436C110.358 21.3533 109.425 21.0081 108.283 21.0081C107.499 21.0081 106.766 21.2169 106.084 21.6345C105.411 22.0522 104.865 22.6317 104.448 23.3732C104.038 24.1061 103.834 24.9541 103.834 25.9172V38.1899H100.817ZM140.339 38.599C138.447 38.599 136.815 38.1814 135.443 37.3462C134.079 36.5024 133.026 35.3263 132.285 33.8178C131.552 32.3007 131.185 30.5365 131.185 28.5252C131.185 26.5138 131.552 24.7411 132.285 23.207C133.026 21.6644 134.058 20.4627 135.379 19.6019C136.708 18.7326 138.259 18.2979 140.032 18.2979C141.055 18.2979 142.065 18.4684 143.062 18.8093C144.059 19.1502 144.967 19.7041 145.785 20.4712C146.603 21.2297 147.255 22.2354 147.741 23.4882C148.227 24.7411 148.47 26.2837 148.47 28.1161V29.3945H133.333V26.7865H145.401C145.401 25.6786 145.18 24.6899 144.737 23.8206C144.302 22.9513 143.68 22.2652 142.87 21.7624C142.069 21.2595 141.123 21.0081 140.032 21.0081C138.83 21.0081 137.791 21.3064 136.913 21.903C136.043 22.4911 135.374 23.2581 134.906 24.2041C134.437 25.1502 134.202 26.1644 134.202 27.2468V28.9854C134.202 30.4684 134.458 31.7255 134.97 32.7567C135.489 33.7794 136.21 34.5593 137.13 35.0962C138.051 35.6246 139.12 35.8888 140.339 35.8888C141.131 35.8888 141.847 35.778 142.487 35.5564C143.134 35.3263 143.693 34.9854 144.161 34.5337C144.63 34.0735 144.992 33.5024 145.248 32.8206L148.163 33.6388C147.856 34.6274 147.34 35.4968 146.616 36.2468C145.891 36.9882 144.997 37.5678 143.931 37.9854C142.866 38.3945 141.668 38.599 140.339 38.599ZM172.29 38.1899V18.5536H175.204V21.5195H175.409C175.767 20.5479 176.415 19.7595 177.352 19.1544C178.29 18.5493 179.346 18.2468 180.522 18.2468C180.744 18.2468 181.021 18.251 181.353 18.2595C181.686 18.2681 181.937 18.2809 182.108 18.2979V21.3661C182.005 21.3405 181.771 21.3022 181.405 21.251C181.047 21.1914 180.667 21.1615 180.267 21.1615C179.312 21.1615 178.46 21.3618 177.71 21.7624C176.968 22.1544 176.38 22.6999 175.946 23.3987C175.52 24.0891 175.307 24.8774 175.307 25.7638V38.1899H172.29ZM191.462 38.6502C190.218 38.6502 189.089 38.4158 188.075 37.947C187.06 37.4698 186.255 36.7837 185.658 35.8888C185.062 34.9854 184.764 33.8945 184.764 32.6161C184.764 31.4911 184.985 30.5791 185.428 29.8803C185.872 29.1729 186.464 28.6189 187.205 28.2183C187.947 27.8178 188.765 27.5195 189.66 27.3235C190.563 27.1189 191.471 26.957 192.383 26.8377C193.576 26.6843 194.543 26.5692 195.285 26.4925C196.035 26.4073 196.58 26.2666 196.921 26.0706C197.271 25.8746 197.445 25.5337 197.445 25.0479V24.9456C197.445 23.6843 197.1 22.7041 196.41 22.0053C195.728 21.3064 194.693 20.957 193.303 20.957C191.863 20.957 190.734 21.2723 189.916 21.903C189.097 22.5337 188.522 23.207 188.19 23.9229L185.326 22.9002C185.837 21.707 186.519 20.778 187.372 20.1132C188.232 19.4399 189.17 18.9712 190.184 18.707C191.207 18.4343 192.212 18.2979 193.201 18.2979C193.832 18.2979 194.556 18.3746 195.374 18.528C196.201 18.6729 196.998 18.9755 197.765 19.4357C198.541 19.8959 199.184 20.5905 199.695 21.5195C200.207 22.4485 200.462 23.6928 200.462 25.2524V38.1899H197.445V35.5309H197.292C197.087 35.957 196.747 36.413 196.269 36.8987C195.792 37.3845 195.157 37.7979 194.364 38.1388C193.572 38.4797 192.604 38.6502 191.462 38.6502ZM191.923 35.9399C193.116 35.9399 194.122 35.7056 194.94 35.2368C195.766 34.7681 196.389 34.163 196.806 33.4215C197.232 32.68 197.445 31.9002 197.445 31.082V28.3206C197.318 28.474 197.036 28.6147 196.602 28.7425C196.176 28.8618 195.681 28.9683 195.119 29.0621C194.565 29.1473 194.024 29.224 193.495 29.2922C192.975 29.3519 192.553 29.403 192.229 29.4456C191.445 29.5479 190.712 29.7141 190.031 29.9442C189.357 30.1658 188.812 30.5024 188.394 30.9541C187.985 31.3973 187.781 32.0024 187.781 32.7695C187.781 33.8178 188.168 34.6104 188.944 35.1473C189.728 35.6757 190.721 35.9399 191.923 35.9399ZM221.323 18.5536L214.062 38.1899H210.993L203.732 18.5536H207.005L212.425 34.2013H212.63L218.05 18.5536H221.323ZM232.835 38.599C230.943 38.599 229.311 38.1814 227.939 37.3462C226.575 36.5024 225.522 35.3263 224.781 33.8178C224.048 32.3007 223.682 30.5365 223.682 28.5252C223.682 26.5138 224.048 24.7411 224.781 23.207C225.522 21.6644 226.554 20.4627 227.875 19.6019C229.204 18.7326 230.755 18.2979 232.528 18.2979C233.551 18.2979 234.561 18.4684 235.558 18.8093C236.555 19.1502 237.463 19.7041 238.281 20.4712C239.099 21.2297 239.751 22.2354 240.237 23.4882C240.723 24.7411 240.966 26.2837 240.966 28.1161V29.3945H225.829V26.7865H237.897C237.897 25.6786 237.676 24.6899 237.233 23.8206C236.798 22.9513 236.176 22.2652 235.366 21.7624C234.565 21.2595 233.619 21.0081 232.528 21.0081C231.326 21.0081 230.287 21.3064 229.409 21.903C228.54 22.4911 227.87 23.2581 227.402 24.2041C226.933 25.1502 226.699 26.1644 226.699 27.2468V28.9854C226.699 30.4684 226.954 31.7255 227.466 32.7567C227.986 33.7794 228.706 34.5593 229.626 35.0962C230.547 35.6246 231.616 35.8888 232.835 35.8888C233.628 35.8888 234.343 35.778 234.983 35.5564C235.63 35.3263 236.189 34.9854 236.657 34.5337C237.126 34.0735 237.488 33.5024 237.744 32.8206L240.659 33.6388C240.352 34.6274 239.836 35.4968 239.112 36.2468C238.388 36.9882 237.493 37.5678 236.427 37.9854C235.362 38.3945 234.165 38.599 232.835 38.599ZM248.572 12.0081V38.1899H245.555V12.0081H248.572Z" fill="white"/>
<path d="M93.2359 12.0081V38.1899H90.0654V15.332H89.912L83.52 19.5763V16.3547L90.0654 12.0081H93.2359ZM150.208 14.8206V12.0081H169.845V14.8206H161.612V38.1899H158.441V14.8206H150.208Z" fill="#F91B1B"/>
<path d="M26.371 9.43082C28.6338 9.43082 30.468 7.59653 30.468 5.33382C30.468 3.07111 28.6338 1.23682 26.371 1.23682C24.1083 1.23682 22.274 3.07111 22.274 5.33382C22.274 7.59653 24.1083 9.43082 26.371 9.43082Z" fill="white" stroke="white"/>
<path d="M4.42603 18.151L10.49 11.103L22.291 16.184L19.341 22.576" stroke="white" stroke-width="5" stroke-linecap="round" stroke-linejoin="round"/>
<path d="M23.11 26.0177L35.075 22.7397V37.4907" stroke="white" stroke-width="5" stroke-linecap="round" stroke-linejoin="round"/>
<path d="M15.264 43.5539C20.9094 43.5539 25.486 38.9773 25.486 33.3319C25.486 27.6864 20.9094 23.1099 15.264 23.1099C9.61854 23.1099 5.04199 27.6864 5.04199 33.3319C5.04199 38.9773 9.61854 43.5539 15.264 43.5539Z" stroke="white" stroke-width="5" stroke-miterlimit="3.99" stroke-linecap="round"/>
</g>
<defs>
<clipPath id="clip0_1_49">
<rect width="250.071" height="45.584" fill="white"/>
</clipPath>
</defs>
</svg>
