<svg width="40" height="40" viewBox="0 0 40 40" fill="none" xmlns="http://www.w3.org/2000/svg">
<g id="pinterest 1">
<g id="_x31_4.Pinterest">
<g id="Group">
<g id="Icon_9_">
<path id="Vector" d="M36 20.48C36.24 11.32 28.88 3.87997 19.76 3.99997C11 4.11997 3.92 11.36 4 20.12C4.04 26.4 7.72 31.8 13 34.4C13.32 34.56 13.68 34.32 13.64 33.96C13.6 32.92 13.64 31.84 13.84 30.96C14.04 30.08 14.84 26.72 15.36 24.52C15.6 23.44 15.64 22.32 15.44 21.24C15.36 20.88 15.32 20.48 15.32 20C15.32 17.64 16.68 15.88 18.4 15.88C19.84 15.88 20.56 16.96 20.56 18.28C20.56 19.72 19.64 21.92 19.16 23.96C18.76 25.64 20 27.04 21.68 27.04C24.72 27.04 27.04 23.84 27.04 19.24C27.04 15.16 24.12 12.32 19.92 12.32C15.08 12.32 12.24 15.96 12.24 19.72C12.24 21.2 12.8 22.76 13.52 23.6C13.64 23.76 13.68 23.92 13.64 24.08C13.52 24.6 13.24 25.76 13.16 26C13.08 26.32 12.92 26.36 12.6 26.24C10.48 25.2 9.12 22.08 9.12 19.6C9.12 14.24 13 9.31997 20.36 9.31997C26.24 9.31997 30.84 13.52 30.84 19.16C30.84 25.04 27.16 29.72 22 29.72C20.64 29.72 19.36 29.16 18.6 28.4C18.36 28.16 17.96 28.28 17.88 28.6C17.6 29.6 17.2 31.28 17.04 31.8C16.8 32.76 16.28 33.88 15.72 34.88C15.56 35.12 15.72 35.48 16 35.52C17.32 35.84 18.68 36.04 20.08 36C28.56 35.92 35.76 28.88 36 20.48Z" fill="White"/>
</g>
</g>
</g>
</g>
</svg>
