<svg width="32" height="32" viewBox="0 0 32 32" fill="none" xmlns="http://www.w3.org/2000/svg">
<g id="twitter 1">
<path id="_x30_4.Twitter" d="M28.768 8.06398C27.808 8.47998 26.816 8.76798 25.76 8.89598C26.848 8.25598 27.68 7.23198 28.064 5.98398C27.04 6.59198 25.92 7.00798 24.736 7.26398C23.776 6.23998 22.4 5.59998 20.896 5.59998C17.984 5.59998 15.648 7.96798 15.648 10.848C15.648 11.264 15.68 11.648 15.776 12.032C11.424 11.84 7.58403 9.72798 4.99203 6.55998C3.13603 9.88798 5.21603 12.64 6.59203 13.568C5.76003 13.568 4.92803 13.312 4.22403 12.928C4.22403 15.52 6.04803 17.664 8.41603 18.144C7.90403 18.304 6.75203 18.4 6.04803 18.24C6.72003 20.32 8.67203 21.856 10.944 21.888C9.15203 23.296 6.52803 24.416 3.16803 24.064C5.50403 25.568 8.25603 26.432 11.232 26.432C20.896 26.432 26.144 18.432 26.144 11.52C26.144 11.296 26.144 11.072 26.112 10.848C27.2 10.048 28.096 9.11998 28.768 8.06398Z" fill="white"/>
</g>
</svg>
